# xmcd
#
# Track frame offsets: 
#        150
#        14293
#        26160
#        45636
#        58884
#        75505
#        94310
#        109838
#        126172
#        145832
#        161623
#        183330
#        199698
#        212783
#        234031
#        247284
#        260301
#        274831
#        286671
#        300842
#        315973
#        332937
#
# Disc length: 4660 seconds
#
# Revision: 0
# Processed by: cddbd v1.5.2PL0 Copyright (c) Steve Scherf et al.
# Submitted via: ExactAudioCopyFreeDBPlugin 1.0
#
DISCID=32123216
DTITLE=Various Artist - Hi Records:  The Soul Years
DYEAR=2014
DGENRE=Soul
TTITLE0=Syl Johnson - Could I Be Falling in Love
TTITLE1=Syl Johnson - I Want to Take You Home (To See Mama)
TTITLE2=Al Green - Love Ritual (Bwana Mix)
TTITLE3=Al Green - So Good to Be Here
TTITLE4=The Hi Rhythm Section - Superstar
TTITLE5=The Hi Rhythm Section - Since You've Been Gone
TTITLE6=Al Green - I Tried to Tell Myself
TTITLE7=Al Green - Have a Good Time
TTITLE8=O.V. Wright - Into Something (Can't Shake Loose)
TTITLE9=O.V. Wright - Precious Precious
TTITLE10=Al Green - Belle
TTITLE11=Al Green - All N All
TTITLE12=Ann Peebles - A Good Day for Lovin'
TTITLE13=Ann Peebles - You're Gonna Make Me Cry
TTITLE14=Otis Clay - Pussy Footing Around
TTITLE15=Otis Clay - Home is Where the Heart Is
TTITLE16=O.V. Wright - The Bottom Line
TTITLE17=O.V. Wright - A Long Road
TTITLE18=Ann Peebles - Old Man with Young Ideas
TTITLE19=Ann Peebles - The Handwriting is on the Wall
TTITLE20=O.V. Wright - We're Still Right
TTITLE21=O.V. Wright - It's Cold Without Your Love
EXTD=
EXTT0=
EXTT1=
EXTT2=
EXTT3=
EXTT4=
EXTT5=
EXTT6=
EXTT7=
EXTT8=
EXTT9=
EXTT10=
EXTT11=
EXTT12=
EXTT13=
EXTT14=
EXTT15=
EXTT16=
EXTT17=
EXTT18=
EXTT19=
EXTT20=
EXTT21=
PLAYORDER=
